<?xml version="1.0" encoding="UTF-8" standalone="no"?>
<svg
   xmlns:dc="http://purl.org/dc/elements/1.1/"
   xmlns:cc="http://creativecommons.org/ns#"
   xmlns:rdf="http://www.w3.org/1999/02/22-rdf-syntax-ns#"
   xmlns:svg="http://www.w3.org/2000/svg"
   xmlns="http://www.w3.org/2000/svg"
   xmlns:sodipodi="http://sodipodi.sourceforge.net/DTD/sodipodi-0.dtd"
   xmlns:inkscape="http://www.inkscape.org/namespaces/inkscape"
   width="212mm"
   height="73mm"
   viewBox="0 0 212 73"
   version="1.1"
   id="svg8"
   inkscape:version="1.0.2 (e86c870879, 2021-01-15, custom)"
   sodipodi:docname="Logo.svg">
  <defs
     id="defs2">
    <rect
       x="8.3154764"
       y="96.761902"
       width="173.86905"
       height="61.232143"
       id="rect835" />
  </defs>
  <sodipodi:namedview
     id="base"
     pagecolor="#ffffff"
     bordercolor="#666666"
     borderopacity="1.0"
     inkscape:pageopacity="0.0"
     inkscape:pageshadow="2"
     inkscape:zoom="0.98994949"
     inkscape:cx="329.61061"
     inkscape:cy="195.40944"
     inkscape:document-units="mm"
     inkscape:current-layer="layer1"
     inkscape:document-rotation="0"
     showgrid="false"
     width="296mm"
     inkscape:window-width="1920"
     inkscape:window-height="1017"
     inkscape:window-x="1912"
     inkscape:window-y="843"
     inkscape:window-maximized="1" />
  <metadata
     id="metadata5">
    <rdf:RDF>
      <cc:Work
         rdf:about="">
        <dc:format>image/svg+xml</dc:format>
        <dc:type
           rdf:resource="http://purl.org/dc/dcmitype/StillImage" />
        <dc:title></dc:title>
      </cc:Work>
    </rdf:RDF>
  </metadata>
  <g
     inkscape:label="Layer 1"
     inkscape:groupmode="layer"
     id="layer1">
    <g
       aria-label="데이빗"
       id="text847"
       style="font-style:normal;font-weight:normal;font-size:76.8593px;line-height:1.25;font-family:sans-serif;opacity:0.144231;fill:#383838;fill-opacity:1;stroke:none;stroke-width:1.92149">
      <path
         d="m 38.082106,48.182612 q 0.153718,1.07603 -0.999171,1.306608 -2.690076,0.614874 -5.995026,1.152889 -3.22809,0.461156 -6.840477,0.768593 -3.535528,0.230578 -7.301633,0.384297 -3.689247,0.07686 -7.3016338,0 Q 6.1854967,51.718139 4.8788886,50.180953 3.6491399,48.643767 3.6491399,45.415677 V 12.904193 q 0,-3.2280901 1.2297487,-4.3041203 1.2297488,-1.0760302 4.611558,-1.0760302 H 31.318487 q 0.999171,0 0.999171,0.9223116 v 2.7669349 q 0,0.922311 -0.999171,0.922311 h -20.82887 q -1.0760297,0 -1.3066076,0.307438 -0.2305779,0.230578 -0.2305779,1.383467 V 45.03138 q 0,1.15289 0.3842965,1.537186 0.3842965,0.384297 1.460327,0.461156 6.686759,0.230578 13.06608,-0.230578 6.379322,-0.461156 12.374348,-1.767764 1.229748,-0.230578 1.460326,0.845453 z M 43.001101,26.969445 V 3.4504997 q 0,-1.0760302 1.07603,-1.0760302 h 2.920653 q 1.076031,0 1.076031,1.0760302 V 67.935451 q 0,1.076031 -1.076031,1.076031 h -2.920653 q -1.07603,0 -1.07603,-1.076031 V 31.581003 H 26.860648 q -0.999171,0 -0.999171,-0.922312 v -2.766934 q 0,-0.922312 0.999171,-0.922312 z m 18.676809,43.88666 q 0,1.07603 -1.07603,1.07603 h -2.920653 q -1.07603,0 -1.07603,-1.07603 V 2.1438916 q 0,-1.0760301 1.07603,-1.0760301 h 2.920653 q 1.07603,0 1.07603,1.0760301 z"
         style="fill:#383838;fill-opacity:1;stroke-width:1.92149"
         id="path853" />
      <path
         d="m 113.40411,30.351254 q 0,4.304121 -1.07603,8.685101 -0.99917,4.38098 -3.22809,7.916508 -2.22892,3.535528 -5.76445,5.841306 -3.458664,2.22892 -8.377659,2.22892 -5.072714,0 -8.608242,-2.22892 -3.458668,-2.228919 -5.610728,-5.764447 -2.075201,-3.612387 -2.997513,-7.993367 -0.922312,-4.38098 -0.922312,-8.685101 0,-4.534698 0.922312,-8.915678 0.922312,-4.45784 2.997513,-7.993367 2.15206,-3.5355282 5.610728,-5.6875886 3.535528,-2.1520603 8.608242,-2.1520603 4.918995,0 8.377659,2.1520603 3.53553,2.1520604 5.76445,5.6875886 2.22892,3.458668 3.22809,7.916507 1.07603,4.38098 1.07603,8.992538 z m -5.45701,-0.07686 q 0,-3.535528 -0.76859,-7.147915 -0.69173,-3.612387 -2.22892,-6.456181 -1.53719,-2.920653 -3.99668,-4.688417 -2.459501,-1.844623 -5.995029,-1.844623 -3.689247,0 -6.148744,1.844623 -2.382638,1.767764 -3.842965,4.688417 -1.460327,2.843794 -2.075201,6.456181 -0.614874,3.612387 -0.614874,7.147915 0,3.381809 0.538015,6.994196 0.614874,3.535528 2.075201,6.533041 1.460326,2.920653 3.919824,4.842135 2.459497,1.844624 6.148744,1.844624 3.535528,0 5.995029,-1.844624 2.45949,-1.921482 3.99668,-4.842135 1.53719,-2.997513 2.22892,-6.533041 0.76859,-3.612387 0.76859,-6.994196 z m 23.44209,40.58171 q 0,1.07603 -1.07603,1.07603 h -3.15123 q -1.07603,0 -1.07603,-1.07603 V 2.1438916 q 0,-1.0760301 1.07603,-1.0760301 h 3.15123 q 1.07603,0 1.07603,1.0760301 z"
         style="fill:#383838;fill-opacity:1;stroke-width:1.92149"
         id="path855" />
      <path
         d="m 156.06092,39.958667 q -1.84463,0 -2.99752,-0.230578 -1.07603,-0.230578 -1.6909,-0.845453 -0.61487,-0.691733 -0.84545,-1.690904 -0.23058,-1.07603 -0.23058,-2.690076 V 4.8339671 q 0,-0.3842965 0.30744,-0.6148744 0.30743,-0.3074372 0.69173,-0.3074372 h 3.30495 q 0.3843,0 0.61488,0.3074372 0.30743,0.3074372 0.30743,0.6148744 V 17.746329 h 22.36606 V 4.9108264 q 0,-0.3842965 0.23058,-0.6917337 0.30743,-0.3074372 0.69173,-0.3074372 h 3.30495 q 0.3843,0 0.69173,0.3074372 0.30744,0.2305779 0.30744,0.6148744 V 35.039671 q 0,2.920654 -1.22975,3.919825 -1.22975,0.999171 -4.61156,0.999171 z m 27.05447,5.764447 q -0.0769,0.538015 -0.15372,1.07603 0,0.461156 -0.15372,0.999171 0.46116,1.844623 1.53719,3.381809 3.84296,5.841307 9.83799,9.607413 5.99502,3.766105 13.6041,5.687588 0.46115,0.153718 0.53801,0.538015 0.0769,0.384296 -0.0769,0.768593 l -1.30661,2.613216 q -0.15372,0.384296 -0.46115,0.614874 -0.23058,0.230578 -0.99917,0 -4.22726,-1.152889 -8.07023,-2.920653 -3.76611,-1.767764 -6.9942,-4.073543 -3.15123,-2.22892 -5.76444,-4.842136 -2.53636,-2.613216 -4.22726,-5.380151 -1.61405,2.766935 -4.07355,5.457011 -2.38264,2.613216 -5.53387,4.918995 -3.15123,2.305779 -6.91733,4.150402 -3.76611,1.844623 -8.07023,3.074372 -1.22975,0.307437 -1.53719,-0.384297 l -1.07603,-2.843794 q -0.15372,-0.384296 -0.0769,-0.845452 0.15372,-0.461156 0.69174,-0.614874 5.14957,-1.306609 9.45369,-3.612387 4.30412,-2.305779 7.45535,-5.149574 3.22809,-2.920653 5.07272,-6.148743 1.84462,-3.30495 2.0752,-6.533041 0.0769,-0.922311 0.92231,-0.922311 l 3.68925,0.307437 q 0.76859,0 0.61487,1.07603 z M 155.5229,22.357887 v 11.144599 q 0,1.152889 0.3843,1.537185 0.3843,0.307438 1.46033,0.307438 h 18.67681 q 1.07603,0 1.46032,-0.307438 0.3843,-0.384296 0.3843,-1.537185 V 22.357887 Z m 48.11392,22.673493 q 0,1.07603 -1.07603,1.07603 h -3.15123 q -1.07603,0 -1.07603,-1.07603 V 2.1438916 q 0,-1.0760301 1.07603,-1.0760301 h 3.15123 q 1.07603,0 1.07603,1.0760301 z"
         style="fill:#383838;fill-opacity:1;stroke-width:1.92149"
         id="path857" />
    </g>
    <g
       aria-label="David Richter
"
       id="text841"
       style="font-style:normal;font-weight:normal;font-size:50.8px;line-height:1.25;font-family:sans-serif;letter-spacing:-4.56142px;fill:#ff6969;fill-opacity:1;stroke:none;stroke-width:0.264583">
      <path
         d="m 24.823205,29.49858 q 0,4.043164 -1.016992,7.14375 -1.016992,3.075781 -3.001367,5.159374 -1.984375,2.083594 -4.911328,3.150196 -2.902148,1.066601 -6.9453125,1.066601 H 2.6230103 q -0.4464844,0 -0.9177734,-0.322461 Q 1.2339478,45.348775 1.2339478,44.455806 V 15.483931 q 0,-0.892968 0.4712891,-1.215429 0.471289,-0.347266 0.9177734,-0.347266 h 6.7468749 q 4.0927738,0 6.8957028,1.116211 2.827735,1.116211 4.712891,3.175 1.909961,2.033984 2.877343,4.911328 0.967383,2.852539 0.967383,6.374805 z m -3.249414,0.148828 q 0,-2.80293 -0.719336,-5.18418 -0.694531,-2.406054 -2.182812,-4.142383 -1.463477,-1.736328 -3.720703,-2.70371 -2.257227,-0.992188 -5.7546876,-0.992188 H 4.2601197 V 43.31479 h 4.9609374 q 3.2742189,0 5.5314449,-0.79375 2.282032,-0.818554 3.795117,-2.505273 1.513086,-1.686719 2.257227,-4.241602 0.768945,-2.579687 0.768945,-6.126757 z"
         style="font-style:normal;font-variant:normal;font-weight:300;font-stretch:normal;font-size:50.8px;font-family:Calibri;-inkscape-font-specification:'Calibri Light';fill:#ff6969;fill-opacity:1;stroke-width:0.264583"
         id="path860" />
      <path
         d="m 42.685222,45.522408 q 0,0.248046 -0.173633,0.396875 -0.148828,0.124023 -0.42168,0.173632 -0.248047,0.07441 -0.694531,0.07441 -0.42168,0 -0.719336,-0.07441 -0.297656,-0.04961 -0.471289,-0.173632 -0.148828,-0.148829 -0.148828,-0.396875 v -2.505274 q -1.513086,1.637109 -3.348633,2.530078 -1.810742,0.892969 -3.770312,0.892969 -1.761133,0 -3.175,-0.446484 -1.389063,-0.471289 -2.356446,-1.314649 -0.967382,-0.868164 -1.488281,-2.083594 -0.520898,-1.215429 -0.520898,-2.728515 0,-1.860352 0.768945,-3.224609 0.768945,-1.389063 2.182813,-2.306836 1.413867,-0.917774 3.398242,-1.364258 1.984375,-0.471289 4.415234,-0.471289 h 3.571875 v -1.934766 q 0,-1.438672 -0.297656,-2.530078 -0.297657,-1.116211 -0.967383,-1.860351 -0.669727,-0.744141 -1.736328,-1.116211 -1.066602,-0.372071 -2.604492,-0.372071 -1.488282,0 -2.678907,0.372071 -1.190625,0.347265 -2.083593,0.79375 -0.892969,0.446484 -1.488282,0.818554 -0.570507,0.347266 -0.818554,0.347266 -0.148828,0 -0.272852,-0.04961 -0.124023,-0.04961 -0.223242,-0.173633 -0.07441,-0.148828 -0.124023,-0.347266 -0.0248,-0.223242 -0.0248,-0.520898 0,-0.520899 0.07441,-0.818555 0.07441,-0.322461 0.37207,-0.620117 0.322461,-0.322461 1.116211,-0.744141 0.79375,-0.421679 1.810742,-0.768945 1.041797,-0.37207 2.232422,-0.595313 1.190625,-0.223242 2.38125,-0.223242 2.306836,0 3.894336,0.570508 1.5875,0.545703 2.554883,1.5875 0.992187,1.041797 1.413867,2.579688 0.42168,1.513085 0.42168,3.447851 z M 39.733464,34.930806 h -4.092773 q -1.785938,0 -3.125391,0.322461 -1.339453,0.322461 -2.232422,0.942578 -0.892969,0.620117 -1.339453,1.488281 -0.42168,0.868164 -0.42168,1.984375 0,1.934766 1.21543,3.100586 1.240234,1.141016 3.472656,1.141016 1.761133,0 3.274219,-0.892969 1.537891,-0.917773 3.249414,-2.80293 z"
         style="font-style:normal;font-variant:normal;font-weight:300;font-stretch:normal;font-size:50.8px;font-family:Calibri;-inkscape-font-specification:'Calibri Light';fill:#ff6969;fill-opacity:1;stroke-width:0.264583"
         id="path862" />
      <path
         d="m 62.630834,23.024556 q 0,0.07441 -0.02481,0.173633 0,0.07441 -0.0248,0.148828 0,0.07441 -0.02481,0.173633 -0.02481,0.07441 -0.04961,0.148828 l -8.135938,21.85293 q -0.07441,0.198437 -0.223242,0.32246 -0.148828,0.124024 -0.37207,0.198438 -0.223242,0.07441 -0.545703,0.09922 -0.297657,0.0248 -0.719336,0.0248 -0.42168,0 -0.744141,-0.04961 -0.322461,-0.02481 -0.545703,-0.09922 -0.223242,-0.07441 -0.37207,-0.198437 -0.148828,-0.124024 -0.223243,-0.297656 l -8.135937,-21.85293 q -0.07441,-0.198437 -0.124023,-0.322461 -0.02481,-0.124023 -0.04961,-0.198437 0,-0.07441 0,-0.124024 0,-0.173632 0.07441,-0.297656 0.07441,-0.124023 0.223243,-0.173633 0.173632,-0.07441 0.446484,-0.09922 0.272851,-0.02481 0.669726,-0.02481 0.545704,0 0.868164,0.04961 0.322461,0.02481 0.496094,0.09922 0.198438,0.07441 0.272852,0.198437 0.09922,0.124024 0.173633,0.297657 l 7.019726,19.595703 0.04961,0.124023 0.04961,-0.124023 6.895703,-19.595703 q 0.04961,-0.173633 0.148828,-0.297657 0.09922,-0.124023 0.272851,-0.198437 0.198438,-0.07441 0.496094,-0.09922 0.322461,-0.04961 0.818555,-0.04961 0.396875,0 0.644922,0.02481 0.272851,0.0248 0.421679,0.09922 0.148829,0.07441 0.198438,0.198438 0.07441,0.09922 0.07441,0.272851 z"
         style="font-style:normal;font-variant:normal;font-weight:300;font-stretch:normal;font-size:50.8px;font-family:Calibri;-inkscape-font-specification:'Calibri Light';fill:#ff6969;fill-opacity:1;stroke-width:0.264583"
         id="path864" />
      <path
         d="m 66.180545,45.522408 q 0,0.148828 -0.07441,0.272851 -0.07441,0.124024 -0.248047,0.198438 -0.148828,0.07441 -0.446484,0.124023 -0.272852,0.04961 -0.719336,0.04961 -0.42168,0 -0.719336,-0.04961 -0.272852,-0.04961 -0.446484,-0.124023 -0.173633,-0.07441 -0.248047,-0.198438 -0.04961,-0.124023 -0.04961,-0.272851 V 23.074166 q 0,-0.148828 0.04961,-0.272852 0.07441,-0.124023 0.248047,-0.198437 0.173632,-0.09922 0.446484,-0.124024 0.297656,-0.04961 0.719336,-0.04961 0.446484,0 0.719336,0.04961 0.297656,0.02481 0.446484,0.124024 0.173633,0.07441 0.248047,0.198437 0.07441,0.124024 0.07441,0.272852 z m 0.446484,-30.013672 q 0,1.190625 -0.421679,1.612305 -0.42168,0.421679 -1.537891,0.421679 -1.091406,0 -1.513086,-0.396875 -0.396875,-0.421679 -0.396875,-1.612304 0,-1.190625 0.42168,-1.612305 0.42168,-0.42168 1.537891,-0.42168 1.091406,0 1.488281,0.42168 0.421679,0.396875 0.421679,1.5875 z"
         style="font-style:normal;font-variant:normal;font-weight:300;font-stretch:normal;font-size:50.8px;font-family:Calibri;-inkscape-font-specification:'Calibri Light';fill:#ff6969;fill-opacity:1;stroke-width:0.264583"
         id="path866" />
      <path
         d="m 87.986508,45.522408 q 0,0.173632 -0.07441,0.297656 -0.04961,0.124023 -0.223242,0.198437 -0.148828,0.07441 -0.396875,0.09922 -0.248047,0.04961 -0.620117,0.04961 -0.396875,0 -0.669727,-0.04961 -0.248047,-0.02481 -0.42168,-0.09922 Q 85.431629,45.944091 85.33241,45.820064 85.258,45.69604 85.258,45.522408 v -3.22461 q -1.785937,1.934766 -3.695898,3.050977 -1.909961,1.091406 -4.167187,1.091406 -2.43086,0 -4.142383,-0.942578 -1.711524,-0.942578 -2.80293,-2.554883 -1.066601,-1.612305 -1.562695,-3.770312 -0.496094,-2.182813 -0.496094,-4.613672 0,-2.852539 0.620117,-5.13457 0.620118,-2.306836 1.835547,-3.919141 1.21543,-1.612305 3.001367,-2.480469 1.785938,-0.868164 4.142383,-0.868164 2.033984,0 3.720703,0.917774 1.686719,0.892968 3.323828,2.654101 V 12.209713 q 0,-0.148828 0.04961,-0.272852 0.07441,-0.124023 0.248046,-0.198437 0.173633,-0.07441 0.446485,-0.124024 0.297656,-0.04961 0.719336,-0.04961 0.446484,0 0.719336,0.04961 0.297656,0.04961 0.446484,0.124024 0.173633,0.07441 0.248047,0.198437 0.07441,0.124024 0.07441,0.272852 z M 85.03475,29.324947 q -1.860351,-2.257227 -3.596679,-3.447852 -1.711524,-1.190625 -3.59668,-1.190625 -1.711523,0 -2.926953,0.818555 -1.21543,0.818555 -1.984375,2.158008 -0.768945,1.339453 -1.116211,3.026172 -0.347266,1.686718 -0.347266,3.423046 0,1.860352 0.297657,3.621485 0.297656,1.761133 1.016992,3.150195 0.719336,1.364258 1.909961,2.207617 1.190625,0.818555 2.976562,0.818555 0.892969,0 1.736328,-0.248047 0.84336,-0.248047 1.736328,-0.818555 0.892969,-0.570507 1.835547,-1.463476 0.967383,-0.917774 2.058789,-2.257227 z"
         style="font-style:normal;font-variant:normal;font-weight:300;font-stretch:normal;font-size:50.8px;font-family:Calibri;-inkscape-font-specification:'Calibri Light';fill:#ff6969;fill-opacity:1;stroke-width:0.264583"
         id="path868" />
      <path
         d="m 119.27051,45.472798 q 0,0.173633 -0.0744,0.297656 -0.0496,0.124024 -0.22324,0.223243 -0.17363,0.07441 -0.49609,0.124023 -0.29766,0.04961 -0.76895,0.04961 -0.42168,0 -0.71933,-0.04961 -0.27286,-0.02481 -0.47129,-0.124023 -0.19844,-0.124024 -0.32246,-0.297657 -0.12403,-0.198437 -0.22325,-0.496093 l -3.00136,-7.788672 q -0.5209,-1.314649 -1.11621,-2.480469 -0.59532,-1.16582 -1.43868,-2.00918 -0.84336,-0.868164 -2.03398,-1.364257 -1.19063,-0.496094 -2.85254,-0.496094 h -3.32383 v 14.461133 q 0,0.148828 -0.0744,0.272851 -0.0744,0.124024 -0.24805,0.198438 -0.17363,0.07441 -0.47129,0.124023 -0.27285,0.04961 -0.71933,0.04961 -0.42168,0 -0.719339,-0.04961 -0.297656,-0.04961 -0.471289,-0.124023 -0.173633,-0.07441 -0.248047,-0.198438 -0.07441,-0.124023 -0.07441,-0.272851 V 15.483931 q 0,-0.892968 0.471289,-1.215429 0.471286,-0.347266 0.917766,-0.347266 h 6.02754 q 1.19063,0 1.95957,0.07441 0.79375,0.04961 1.43867,0.148828 1.83555,0.322461 3.19981,1.041797 1.36426,0.719336 2.25723,1.785938 0.89296,1.041797 1.31464,2.38125 0.44649,1.314648 0.44649,2.852539 0,1.5875 -0.44649,2.852539 -0.44648,1.240234 -1.26503,2.207617 -0.81856,0.942578 -1.95958,1.637109 -1.14101,0.694531 -2.50527,1.16582 0.81856,0.372071 1.46348,0.917774 0.66972,0.545703 1.21543,1.314648 0.57051,0.768946 1.0666,1.785938 0.49609,0.992187 0.99219,2.232422 l 3.00136,7.491015 q 0.32246,0.868164 0.39688,1.190625 0.0992,0.322461 0.0992,0.471289 z M 113.9375,22.528463 q 0,-2.058789 -0.91777,-3.472657 -0.91778,-1.438671 -3.07578,-2.058789 -0.71934,-0.198437 -1.5627,-0.272851 -0.84336,-0.09922 -2.20762,-0.09922 h -3.96875 v 11.782226 h 4.61367 q 1.86036,0 3.19981,-0.446484 1.33945,-0.471289 2.20762,-1.265039 0.89297,-0.79375 1.28984,-1.860352 0.42168,-1.066601 0.42168,-2.306835 z"
         style="font-style:normal;font-variant:normal;font-weight:300;font-stretch:normal;font-size:50.8px;font-family:Calibri;-inkscape-font-specification:'Calibri Light';fill:#ff6969;fill-opacity:1;stroke-width:0.264583"
         id="path870" />
      <path
         d="m 124.06045,45.522408 q 0,0.148828 -0.0744,0.272851 -0.0744,0.124024 -0.24805,0.198438 -0.14883,0.07441 -0.44648,0.124023 -0.27286,0.04961 -0.71934,0.04961 -0.42168,0 -0.71934,-0.04961 -0.27285,-0.04961 -0.44648,-0.124023 -0.17363,-0.07441 -0.24805,-0.198438 -0.0496,-0.124023 -0.0496,-0.272851 V 23.074166 q 0,-0.148828 0.0496,-0.272852 0.0744,-0.124023 0.24805,-0.198437 0.17363,-0.09922 0.44648,-0.124024 0.29766,-0.04961 0.71934,-0.04961 0.44648,0 0.71934,0.04961 0.29765,0.02481 0.44648,0.124024 0.17363,0.07441 0.24805,0.198437 0.0744,0.124024 0.0744,0.272852 z m 0.44649,-30.013672 q 0,1.190625 -0.42168,1.612305 -0.42168,0.421679 -1.5379,0.421679 -1.0914,0 -1.51308,-0.396875 -0.39688,-0.421679 -0.39688,-1.612304 0,-1.190625 0.42168,-1.612305 0.42168,-0.42168 1.53789,-0.42168 1.09141,0 1.48829,0.42168 0.42168,0.396875 0.42168,1.5875 z"
         style="font-style:normal;font-variant:normal;font-weight:300;font-stretch:normal;font-size:50.8px;font-family:Calibri;-inkscape-font-specification:'Calibri Light';fill:#ff6969;fill-opacity:1;stroke-width:0.264583"
         id="path872" />
      <path
         d="m 143.43555,42.198579 q 0,0.297657 -0.0248,0.545704 -0.0248,0.223242 -0.0744,0.396875 -0.0496,0.173632 -0.14883,0.322461 -0.0744,0.124023 -0.39688,0.446484 -0.32246,0.322461 -1.0914,0.818555 -0.74414,0.496093 -1.68672,0.868164 -0.94258,0.37207 -2.03399,0.595312 -1.0914,0.248047 -2.25722,0.248047 -2.33164,0 -4.14239,-0.768945 -1.78593,-0.79375 -3.00136,-2.306836 -1.21543,-1.537891 -1.86035,-3.745508 -0.62012,-2.232422 -0.62012,-5.13457 0,-3.274219 0.76894,-5.60586 0.79375,-2.33164 2.15801,-3.819921 1.36426,-1.488282 3.175,-2.182813 1.83555,-0.719336 3.91914,-0.719336 1.11621,0 2.1332,0.223242 1.017,0.198438 1.86036,0.545704 0.86816,0.347265 1.53789,0.79375 0.66972,0.446484 0.96738,0.768945 0.32246,0.297656 0.42168,0.471289 0.12402,0.148828 0.17363,0.347266 0.0744,0.198437 0.0992,0.446484 0.0248,0.223242 0.0248,0.545703 0,0.719336 -0.22325,1.016992 -0.19843,0.272852 -0.44648,0.272852 -0.34727,0 -0.86817,-0.446485 -0.49609,-0.446484 -1.28984,-0.967382 -0.79375,-0.545704 -1.93476,-0.992188 -1.11622,-0.446484 -2.67891,-0.446484 -3.22461,0 -4.98574,2.480468 -1.73633,2.480469 -1.73633,7.168555 0,2.356445 0.47129,4.142383 0.47129,1.761133 1.33945,2.951758 0.89297,1.16582 2.15801,1.761132 1.26504,0.570508 2.85254,0.570508 1.48828,0 2.6293,-0.471289 1.14101,-0.471289 1.98437,-1.041797 0.84336,-0.570508 1.38906,-1.041797 0.57051,-0.471289 0.84336,-0.471289 0.14883,0 0.24805,0.09922 0.12402,0.07441 0.19844,0.272852 0.0744,0.173632 0.0992,0.446484 0.0496,0.248047 0.0496,0.595312 z"
         style="font-style:normal;font-variant:normal;font-weight:300;font-stretch:normal;font-size:50.8px;font-family:Calibri;-inkscape-font-specification:'Calibri Light';fill:#ff6969;fill-opacity:1;stroke-width:0.264583"
         id="path874" />
      <path
         d="m 163.0091,45.522408 q 0,0.148828 -0.0744,0.272851 -0.0744,0.124024 -0.24804,0.198438 -0.14883,0.07441 -0.44649,0.124023 -0.27285,0.04961 -0.69453,0.04961 -0.44648,0 -0.74414,-0.04961 -0.27285,-0.04961 -0.44648,-0.124023 -0.14883,-0.07441 -0.22325,-0.198438 -0.0744,-0.124023 -0.0744,-0.272851 V 32.202291 q 0,-2.083594 -0.32246,-3.373438 -0.32246,-1.314648 -0.96738,-2.232422 -0.64493,-0.942578 -1.66192,-1.438672 -0.99219,-0.520898 -2.33164,-0.520898 -1.71152,0 -3.42305,1.21543 -1.71152,1.215429 -3.59668,3.571875 v 16.098242 q 0,0.148828 -0.0744,0.272851 -0.0744,0.124024 -0.24805,0.198438 -0.14882,0.07441 -0.44648,0.124023 -0.27285,0.04961 -0.71934,0.04961 -0.42168,0 -0.71933,-0.04961 -0.27285,-0.04961 -0.44649,-0.124023 -0.17363,-0.07441 -0.24804,-0.198438 -0.0496,-0.124023 -0.0496,-0.272851 V 12.085689 q 0,-0.148828 0.0496,-0.272851 0.0744,-0.124024 0.24804,-0.198438 0.17364,-0.09922 0.44649,-0.124023 0.29765,-0.04961 0.71933,-0.04961 0.44649,0 0.71934,0.04961 0.29766,0.0248 0.44648,0.124023 0.17364,0.07441 0.24805,0.198438 0.0744,0.124023 0.0744,0.272851 v 14.014649 q 1.83555,-2.033985 3.6711,-2.976563 1.83555,-0.967383 3.67109,-0.967383 2.20762,0 3.7207,0.744141 1.51309,0.74414 2.43086,2.00918 0.94258,1.265039 1.33946,2.951757 0.42168,1.686719 0.42168,4.067969 z"
         style="font-style:normal;font-variant:normal;font-weight:300;font-stretch:normal;font-size:50.8px;font-family:Calibri;-inkscape-font-specification:'Calibri Light';fill:#ff6969;fill-opacity:1;stroke-width:0.264583"
         id="path876" />
      <path
         d="m 176.95197,44.182954 q 0,0.520899 -0.0992,0.84336 -0.0744,0.322461 -0.27285,0.520898 -0.17363,0.173633 -0.5457,0.347266 -0.34727,0.148828 -0.81856,0.248047 -0.47129,0.124023 -0.99218,0.173633 -0.5209,0.07441 -1.017,0.07441 -1.66191,0 -2.82773,-0.446485 -1.16582,-0.446484 -1.90996,-1.339453 -0.74414,-0.917773 -1.09141,-2.306836 -0.32246,-1.389062 -0.32246,-3.274218 V 25.058541 h -3.34863 q -0.34727,0 -0.5457,-0.297657 -0.19844,-0.322461 -0.19844,-0.942578 0,-0.322461 0.0496,-0.545703 0.0496,-0.248047 0.14883,-0.396875 0.0992,-0.173633 0.22324,-0.248047 0.14883,-0.07441 0.32246,-0.07441 h 3.34863 v -5.50664 q 0,-0.148828 0.0496,-0.272852 0.0744,-0.124023 0.24805,-0.198437 0.17363,-0.09922 0.44648,-0.124024 0.29766,-0.04961 0.71934,-0.04961 0.44648,0 0.71933,0.04961 0.29766,0.02481 0.44649,0.124024 0.17363,0.07441 0.24804,0.198437 0.0744,0.124024 0.0744,0.272852 v 5.50664 h 6.20117 q 0.17363,0 0.29766,0.07441 0.14883,0.07441 0.24804,0.248047 0.0992,0.148828 0.14883,0.396875 0.0496,0.223242 0.0496,0.545703 0,0.620117 -0.22324,0.942578 -0.19844,0.297657 -0.5209,0.297657 h -6.20117 v 13.568164 q 0,2.554882 0.71933,3.894335 0.74415,1.339454 2.67891,1.339454 0.59531,0 1.0666,-0.124024 0.4961,-0.124023 0.86817,-0.272851 0.37207,-0.148829 0.62011,-0.272852 0.27286,-0.124023 0.47129,-0.124023 0.12403,0 0.22325,0.04961 0.0992,0.04961 0.14882,0.198437 0.0744,0.124024 0.0992,0.347266 0.0496,0.198438 0.0496,0.520898 z"
         style="font-style:normal;font-variant:normal;font-weight:300;font-stretch:normal;font-size:50.8px;font-family:Calibri;-inkscape-font-specification:'Calibri Light';fill:#ff6969;fill-opacity:1;stroke-width:0.264583"
         id="path878" />
      <path
         d="m 196.07903,33.144869 q 0,0.892968 -0.47128,1.240234 -0.47129,0.322461 -0.91778,0.322461 h -15.30449 q 0,2.083594 0.39687,3.770312 0.42168,1.686719 1.36426,2.902149 0.94258,1.190625 2.45567,1.835547 1.51308,0.644922 3.7207,0.644922 1.56269,0 2.80293,-0.272852 1.24023,-0.272852 2.1332,-0.595313 0.91778,-0.347265 1.48828,-0.620117 0.59532,-0.272851 0.84336,-0.272851 0.14883,0 0.27285,0.07441 0.12403,0.07441 0.19844,0.248047 0.0744,0.148828 0.0992,0.396875 0.0496,0.248047 0.0496,0.620117 0,0.173633 -0.0248,0.347265 -0.0248,0.148829 -0.0744,0.297657 -0.0248,0.124023 -0.0992,0.248047 -0.0744,0.124023 -0.19843,0.248046 -0.12403,0.124024 -0.76895,0.446485 -0.64492,0.297656 -1.68672,0.620117 -1.0418,0.297656 -2.43086,0.545703 -1.36426,0.248047 -2.95176,0.248047 -2.60449,0 -4.61367,-0.768945 -2.00918,-0.79375 -3.37344,-2.306836 -1.36425,-1.537891 -2.08359,-3.795117 -0.69453,-2.257227 -0.69453,-5.233789 0,-2.852539 0.71934,-5.109766 0.74414,-2.257226 2.10839,-3.819922 1.36426,-1.5875 3.27422,-2.406054 1.93477,-0.84336 4.29121,-0.84336 2.53008,0 4.31602,0.84336 1.78594,0.843359 2.92695,2.282031 1.16582,1.413867 1.68672,3.299023 0.5457,1.885156 0.5457,3.96875 z m -3.05097,-0.868164 q 0.0744,-3.571875 -1.63711,-5.581055 -1.71153,-2.00918 -4.98574,-2.00918 -1.68672,0 -2.97657,0.644922 -1.26504,0.620117 -2.158,1.661914 -0.86817,1.041797 -1.33946,2.43086 -0.47129,1.364257 -0.5457,2.852539 z"
         style="font-style:normal;font-variant:normal;font-weight:300;font-stretch:normal;font-size:50.8px;font-family:Calibri;-inkscape-font-specification:'Calibri Light';fill:#ff6969;fill-opacity:1;stroke-width:0.264583"
         id="path880" />
      <path
         d="m 210.76605,24.215181 q 0,0.372071 -0.0248,0.644922 -0.0248,0.248047 -0.0992,0.42168 -0.0496,0.148828 -0.14883,0.248047 -0.0744,0.07441 -0.22324,0.07441 -0.22324,0 -0.5209,-0.09922 -0.29766,-0.124023 -0.69453,-0.248047 -0.39688,-0.124023 -0.86817,-0.223242 -0.47128,-0.124023 -1.04179,-0.124023 -0.66973,0 -1.31465,0.297656 -0.64492,0.272851 -1.36426,0.917773 -0.69453,0.620117 -1.48828,1.661914 -0.76894,1.041797 -1.71152,2.554883 v 15.180469 q 0,0.148828 -0.0744,0.272851 -0.0744,0.124024 -0.24804,0.198438 -0.14883,0.07441 -0.44649,0.124023 -0.27285,0.04961 -0.71933,0.04961 -0.42168,0 -0.71934,-0.04961 -0.27285,-0.04961 -0.44648,-0.124023 -0.17364,-0.07441 -0.24805,-0.198438 -0.0496,-0.124023 -0.0496,-0.272851 V 23.074166 q 0,-0.148828 0.0496,-0.272852 0.0744,-0.124023 0.24805,-0.198437 0.17363,-0.09922 0.42168,-0.124024 0.27285,-0.04961 0.69453,-0.04961 0.42168,0 0.69453,0.04961 0.27285,0.02481 0.42168,0.124024 0.14883,0.07441 0.19843,0.198437 0.0744,0.124024 0.0744,0.272852 v 3.54707 q 0.96738,-1.413867 1.78594,-2.282031 0.81855,-0.868164 1.56269,-1.339453 0.74414,-0.496094 1.43867,-0.669727 0.71934,-0.173633 1.46348,-0.173633 0.32246,0 0.74414,0.04961 0.42168,0.0248 0.89297,0.124023 0.49609,0.09922 0.86816,0.248047 0.39688,0.124023 0.54571,0.248047 0.14882,0.09922 0.19843,0.198437 0.0496,0.07441 0.0744,0.223242 0.0496,0.124024 0.0496,0.372071 0.0248,0.223242 0.0248,0.595312 z"
         style="font-style:normal;font-variant:normal;font-weight:300;font-stretch:normal;font-size:50.8px;font-family:Calibri;-inkscape-font-specification:'Calibri Light';fill:#ff6969;fill-opacity:1;stroke-width:0.264583"
         id="path882" />
    </g>
  </g>
</svg>
